<svg width="98" height="111" viewBox="0 0 98 111" fill="none" xmlns="http://www.w3.org/2000/svg">
<path d="M18.06 59.3652L17.22 48.9589V40.634H24.01V48.9589L23.24 59.3652H18.06ZM74.0053 59.3652L73.1653 48.9589V40.634H79.9553V48.9589L79.1853 59.3652H74.0053Z" fill="white"/>
<path fill-rule="evenodd" clip-rule="evenodd" d="M71.84 104.707C72.62 102.989 73.01 101.057 73.01 98.909C73.01 96.9335 72.685 95.0867 72.035 93.3689C71.3416 91.651 70.41 90.2338 69.24 89.1172C68.6552 88.5583 68.0403 88.0992 67.3951 87.7399C66.734 87.8649 66.0056 87.9374 65.21 87.9576V86.9269C65.9733 87.0826 66.7016 87.3537 67.3951 87.7399C68.1384 87.5994 68.7967 87.3929 69.37 87.1202C70.41 86.6048 71.1683 85.8533 71.645 84.8655C72.1216 83.8348 72.36 82.5893 72.36 81.1291C72.36 80.6138 72.3383 80.0769 72.295 79.5187C72.295 78.9604 72.2733 78.5524 72.23 78.2947H67.42V80.4849C67.42 81.1721 67.2683 81.6874 66.965 82.031C66.6616 82.3746 66.12 82.5464 65.34 82.5464H51.04C46.6633 82.5464 43.24 83.6844 40.77 85.9606C38.2567 88.2368 37 91.4363 37 95.5591V102.08H42.2V95.5591C42.2 93.1112 42.915 91.243 44.345 89.9546C45.775 88.6233 47.9633 87.9576 50.91 87.9576L53.25 99.4243C53.9866 103.161 55.1783 105.909 56.825 107.67C58.4283 109.388 60.7033 110.247 63.65 110.247C65.5133 110.247 67.16 109.753 68.59 108.765C69.9766 107.777 71.06 106.424 71.84 104.707ZM67.03 92.5958C67.81 94.1419 68.2 96.0745 68.2 98.3936C68.2 100.326 67.7666 101.85 66.9 102.967C65.99 104.041 64.7333 104.578 63.13 104.578C61.7 104.578 60.5516 104.127 59.685 103.225C58.775 102.323 58.1033 100.713 57.67 98.3936L55.59 87.9576H58.58C60.4866 87.9576 62.1766 88.3441 63.65 89.1172C65.08 89.8902 66.2066 91.0498 67.03 92.5958Z" fill="white"/>
<path d="M52.2861 70.9506C47.4069 71.398 43.4465 70.391 40.4047 67.9295C37.363 65.468 35.6228 61.8885 35.1843 57.1911L41.4575 56.6159C41.7456 59.7015 42.7824 62.0216 44.5678 63.5765C46.3954 65.081 48.7962 65.697 51.7702 65.4243C54.7442 65.1516 56.967 64.1117 58.4385 62.3046C59.9523 60.4472 60.5652 57.9758 60.2771 54.8902L57.4525 24.6332L45.2546 25.7517L44.7258 20.0871L63.1969 18.3934L66.5503 54.315C66.9889 59.0124 65.9177 62.8497 63.3368 65.8268C60.8023 68.7995 57.1187 70.5075 52.2861 70.9506Z" fill="white"/>
</svg>
