<svg width="98" height="111" viewBox="0 0 98 111" fill="none" xmlns="http://www.w3.org/2000/svg">
<path d="M18.06 59.8999L17.22 49.3999V38.8999H24.01V49.3999L23.24 59.8999H18.06ZM74.0053 59.8999L73.1653 49.3999V38.8999H79.9553V49.3999L79.1853 59.8999H74.0053Z" fill="white"/>
<path d="M49.9 71.6999C45 71.6999 41.15 70.3232 38.35 67.5699C35.55 64.8166 34.15 61.0599 34.15 56.2999H40.45C40.45 59.4266 41.2667 61.8532 42.9 63.5799C44.58 65.2599 46.9133 66.0999 49.9 66.0999C52.8867 66.0999 55.1967 65.2599 56.83 63.5799C58.51 61.8532 59.35 59.4266 59.35 56.2999V25.6399H47.1V19.8999H65.65V56.2999C65.65 61.0599 64.2267 64.8166 61.38 67.5699C58.58 70.3232 54.7533 71.6999 49.9 71.6999Z" fill="white"/>
<path d="M68.8368 92.1735C68.447 94.0535 67.7339 95.6214 66.6974 96.8771C65.6608 98.1328 64.376 99.0102 62.8427 99.5093C61.3094 100.009 59.6224 100.067 57.7815 99.6855L28.8175 93.6802L24 92.6813L25.0963 87.3938L58.8778 94.3979C60.2095 94.6741 61.3442 94.5212 62.2818 93.9395C63.1803 93.3496 63.7594 92.428 64.0193 91.1746L66.151 80.8933L70.9685 81.8922L68.8368 92.1735Z" fill="white"/>
</svg>
